<?xml version="1.0" encoding="utf-8"?>
<!-- Generator: Adobe Illustrator 27.5.0, SVG Export Plug-In . SVG Version: 6.00 Build 0)  -->
<svg version="1.1" id="Layer_1" xmlns="http://www.w3.org/2000/svg" xmlns:xlink="http://www.w3.org/1999/xlink" x="0px" y="0px"
	 viewBox="0 0 660.5 592.3" style="enable-background:new 0 0 660.5 592.3;" xml:space="preserve">
<style type="text/css">
	.st0{fill:#FFFFFF;}
</style>
<g>
	<g>
		<g>
			<g>
				<path class="st0" d="M436.9,427.5c0,2.1-1.7,3.9-3.9,3.9l-9.3,0h-24.6v-3.9l9.1,0v-26.2h7l0.8,0.6v25.5h9.3
					c2.1,0,3.9-1.7,3.9-3.9v-41.8c0-4.5-1.1-5.2-3-6v-1.1l10-4.4l0.8,0.6V427.5z"/>
				<path class="st0" d="M603.9,421.6l0-50.6l-0.8-0.6l-10,4.4v1.1c1.9,0.8,3,1.6,3,6v39.8c0,5.6-0.5,7.9-3.1,8.8v1.1H607v-1.1
					C604.5,429.6,603.9,427.2,603.9,421.6z"/>
				<path class="st0" d="M561,440.5c0-2.4-1.8-4.3-4.3-4.3c-2.4,0-4.3,1.9-4.3,4.3c0,2.4,1.9,4.3,4.3,4.3
					C559.1,444.8,561,442.9,561,440.5z"/>
				<path class="st0" d="M417.9,392.6v-3.1c0,0-7.1,2.4-8.7-2.5c0,0-1-2.9,1.2-5c1.5-1.4,3.9-1.5,6.8,0.4l1.3-0.9
					c-1.8-1.5-4-2.3-6.4-2.3c-4.6,0-7.4,2.8-7.4,7.4c0,0-0.1,3.4,2.8,5.2l-3.8,1v2c2.4-1,5.5-1.6,8.8-1.9
					C414.3,392.8,416.1,392.6,417.9,392.6z"/>
				<path class="st0" d="M562.3,431.5l19.6,0c2.1,0,3.9-1.8,3.9-3.9V371l-0.8-0.6l-10,4.4v1.1c1.9,0.8,3,1.6,3,6v41.8
					c0,2.1-1.8,3.9-3.9,3.9h-7.7c-2.1,0-3.9-1.7-3.9-3.9l0-26l-0.8-0.6l-10,4.4v1.1c1.9,0.8,3,1.6,3,6l0,15.1c0,2.1-1.7,3.9-3.9,3.9
					h-10.8l-17-23.1c-5.5-7.7-11.2-9.8-17.9-5c-2.8,2-4.9,5.4-6.3,9.3l0.9,1.3c1-2.7,2.4-4.7,4.2-6c4.9-3.5,8.3-0.9,13.1,5.9
					l13.2,17.7h-43.2v-29.8l-0.8-0.6l-10,4.4v1.1c1.9,0.8,3,1.6,3,6v21.1c0,13.3-6.6,18.3-16.6,18.3c0,0-0.1,0-0.1,0v1.6
					c1,0.1,2,0.2,3,0.2c10,0,20.2-4.4,21.3-18.3h64.1c2.6,0,3.6-0.2,5.5-1.1C558.7,431.3,559.8,431.5,562.3,431.5z"/>
				<path class="st0" d="M458.2,430.4c-2.6-0.9-3.1-3.2-3.1-8.8l0-50.6l-0.8-0.6l-10,4.4v1.1c1.9,0.8,3,1.6,3,6v39.8
					c0,5.6-0.5,7.9-3.1,8.8v1.1h13.9V430.4z"/>
				<path class="st0" d="M376.1,404.4l17,23.1v4H292.7c-1,13.9-11.3,18.3-21.3,18.3c-1,0-2-0.1-3-0.2V448c0,0,0.1,0,0.1,0
					c10,0,16.5-5,16.5-18.3l0.1-21.1c0-4.5-1.1-5.2-3-6v-1.1l10-4.4l0.8,0.6v29.8l13.3,0v-10.3c0-19.9,16.8-18.8,16.8-18.8
					c9,0.2,16.8,5.8,16.8,5.8l0,23.3l43.7,0l-13.2-17.7c-4.8-6.8-8.3-9.3-13.1-5.9c-1.8,1.3-3.2,3.3-4.2,6l-0.9-1.3
					c1.4-3.9,3.5-7.3,6.3-9.3C364.9,394.6,370.6,396.7,376.1,404.4z M331.2,405.2c-4.9-2.8-8.2-2.8-8.2-2.8s-8.3-1.2-8.3,12.3v12.9
					h16.4V405.2z"/>
				<g>
					<path class="st0" d="M260.5,420.2l0-49.2l-0.8-0.6l-10.7,4.7v1.1c2,0.9,3.2,1.7,3.2,6.5v37.5c0,6-0.6,8.4-3.3,9.4v1.2h14.9
						v-1.2C261.1,428.7,260.5,426.2,260.5,420.2z"/>
					<path class="st0" d="M99.9,435.7c-2.5,0-4.6,2-4.6,4.6c0,2.5,2,4.6,4.6,4.6c2.5,0,4.6-2,4.6-4.6
						C104.5,437.7,102.6,435.7,99.9,435.7z"/>
					<path class="st0" d="M177.8,399.6l0,28.6c0,16.8-11.6,22.1-22.8,22.1c-1.1,0-2.2-0.1-3.2-0.2l0-1.7c0,0,0.1,0,0.1,0
						c10.6,0,17.7-5.5,17.7-19.7c0,0-3.5,2.2-7.8,2.1c0,0-16.1,0.9-16.1-18.7c0-19.1,16.1-18,16.1-18
						C170.3,394.2,177.8,399.6,177.8,399.6z M169.6,400.5c-4.7-2.7-7.8-2.7-7.8-2.7s-7.9-1.2-7.9,11.8v5.4c0,13,7.9,11.8,7.9,11.8
						s3.2,0,7.8-2.7V400.5z"/>
					<path class="st0" d="M137.2,370.4l0.8,0.6v55.5c0,2.3-1.9,4.2-4.1,4.2l-21.4,0c-2.7,0-3.9-0.3-5.9-1.1
						c-2.1,0.9-3.2,1.1-5.9,1.1H81.8c-2.6,0-4.4-2.1-4.4-2.1s-3.5,2.2-7.8,2.1c0,0-16.1,0.9-16.1-18.7c0-19.1,16.1-18,16.1-18
						c8.6,0.2,16.1,5.6,16.1,5.6l0,26.9h15.2c2.3,0,4.2-1.9,4.2-4.1v-16.1c0-4.8-1.2-5.6-3.2-6.5v-1.1l10.7-4.7l0.8,0.6l0,27.7
						c0,2.3,1.9,4.1,4.1,4.1h8.2c2.3,0,4.2-1.9,4.2-4.1v-39.7c0-4.8-1.2-5.6-3.2-6.5v-1.1L137.2,370.4z M77.5,400.5
						c-4.7-2.7-7.8-2.7-7.8-2.7s-7.9-1.2-7.9,11.8v5.4c0,13,7.9,11.8,7.9,11.8s3.2,0,7.8-2.7V400.5z"/>
					<path class="st0" d="M228.6,375.1v1.1c2,0.9,3.2,1.7,3.2,6.5v39.7c0,2.3-1.9,4.1-4.2,4.1h-9.4c-2.3,0-4.1-1.9-4.1-4.1l0-13.3
						c0-9.8-4.6-15.1-14.4-15.1c-5.2,0-9.9,1.9-13.8,5l1,0.8c2.8-1.9,5.6-2.7,8.5-2.7c6,0,10.1,3.1,10.3,11.1l0,14.2
						c0,2.3-1.9,4.1-4.1,4.1h-15.9v4.2l19.8,0c2.7,0,3.9-0.3,5.9-1.1c2.1,0.9,3.2,1.1,5.9,1.1l18.5,0c2.3,0,4.1-1.9,4.1-4.2V371
						l-0.8-0.6L228.6,375.1z"/>
					<path class="st0" d="M112.1,435.7c-2.5,0-4.6,2-4.6,4.6c0,2.5,2,4.6,4.6,4.6s4.6-2,4.6-4.6
						C116.7,437.7,114.8,435.7,112.1,435.7z"/>
					<path class="st0" d="M65.9,389.8c2.5,0,4.6-2,4.6-4.6c0-2.6-1.9-4.6-4.6-4.6c-2.5,0-4.6,2-4.6,4.6
						C61.4,387.8,63.4,389.8,65.9,389.8z"/>
					<path class="st0" d="M73.6,385.3c0,2.5,2,4.6,4.6,4.6c2.5,0,4.6-2,4.6-4.6c0-2.6-1.9-4.6-4.6-4.6
						C75.6,380.7,73.6,382.7,73.6,385.3z"/>
				</g>
			</g>
			<g>
				<path class="st0" d="M94,512.5c-4.3-10.8-6.1-14.7-15.3-15.7c10.8-1.3,16-6.9,16-14.4c0-6.6-4.7-13-21.4-13H56.1v1.1
					c2.7,0.9,3.3,3.3,3.3,9.2V516c0,5.9-0.6,8.3-3.3,9.2v1.1h15.2v-1.1c-2.7-0.9-3.3-3.3-3.3-9.2v-17.9h4.8c7.2,0,7.6,3,12.5,14.9
					c3.9,9.5,5.5,13.9,12.3,13.9c1.4,0,4-0.1,5.9-0.6v-1.1c-0.4,0.1-0.8,0.1-1.2,0.1C99.2,525.3,98.3,523.4,94,512.5z M68,495.5
					v-23.3c1.2-0.2,2.4-0.2,3.6-0.2c10.2,0,14.4,5.8,14.4,12.4c0,6.3-3.5,11.2-12.8,11.2H68z"/>
				<path class="st0" d="M340.5,516v-15.7c0-9.9-4.6-15.2-14.5-15.2c-7.4,0-13.7,3.7-18.3,9.4l0.8,0.7c4.2-5,8.6-6.9,13.2-6.9
					c6,0,10.4,2.3,10.6,10.3l-9,2.6c-10.1,2.9-18.7,6.9-18.7,15.3c0,6.8,5.1,10.7,11.1,10.7c8.5,0,14.3-7.1,16.6-16.6v12.5
					c0,2.1,1.1,3.3,3.3,3.3h8.1v-1.1C341,524.3,340.5,521.9,340.5,516z M332.3,502.7c-0.1,7.3-4.6,18.6-12.5,18.6
					c-3.7,0-7.6-2.2-7.6-7.6c0-6.8,7.6-8.9,11.4-10l8.7-2.5V502.7z"/>
				<path class="st0" d="M126.9,520.6c-10.3,0-16.9-6.9-16.9-18.9h31c0-9.2-5.9-16.7-16.9-16.7c-10.6,0-21.4,8.6-21.4,22.5
					c0,13.2,10.3,19.6,19.3,19.6c9.4,0,15.9-6.5,19.6-12.2l-0.7-0.8C137.6,518,132.9,520.6,126.9,520.6z M121.7,488.2
					c5.4,0,9.8,3.3,11,11h-22.3C111.5,491.8,117.2,488.2,121.7,488.2z"/>
				<path class="st0" d="M284.7,520.6c-10.3,0-16.9-6.9-16.9-18.9h31c0-9.2-5.9-16.7-16.9-16.7c-10.6,0-21.4,8.6-21.4,22.5
					c0,13.2,10.3,19.6,19.3,19.6c9.4,0,15.9-6.5,19.6-12.2l-0.7-0.8C295.3,518,290.7,520.6,284.7,520.6z M279.5,488.2
					c5.4,0,9.8,3.3,11,11h-22.3C269.3,491.8,275,488.2,279.5,488.2z"/>
				<path class="st0" d="M187,516v-54.9l-0.8-0.7l-10.8,4.7v1.1c2,0.9,3.3,1.7,3.3,6.5v14.3c-2.4-1.2-5.3-2-8.7-2
					c-14.2,0-22.7,9.9-22.7,22.4c0,10.1,7,19.6,17.4,19.8c6.1,0.2,11-4.1,14.1-7.7v3.4c0,2.1,1.1,3.3,3.3,3.3h8.3v-1.1
					C187.6,524.3,187,521.9,187,516z M178.7,518c-2.4,2.5-5.5,4.5-9,4.5c-11.7,0-14.4-13.8-14.4-21.5c0-4.7,2.7-12.7,11.3-12.7
					c5.9,0,12.1,6.4,12.1,11.7V518z"/>
				<path class="st0" d="M236,493.2c-6.5-2.6-14.7-5.5-14.7-12.8c0-6.1,6.6-8.8,11.6-8.8c7.5,0,15.2,4,18.2,11.5l0.9-0.3l-0.3-10.6
					c-4.2-2.1-9.6-3.4-15.6-3.4c-12.8,0-20.9,6.3-20.9,16.4c0,9.4,7,12.2,15.4,15.7c6.5,2.6,17,6.4,17,14.3c0,6.1-6.3,8.8-10.8,8.8
					c-9.2,0-17.9-5.2-21.5-15l-1.1,0.2l0.3,12.2c4.2,3.1,11.7,5.8,20.1,5.8c9.4,0,19.6-6.2,19.6-17.4
					C254.2,500.1,244.3,496.4,236,493.2z"/>
				<g>
					<path class="st0" d="M574.8,523.2v-12.5c-2.3,9.5-8.2,16.6-16.6,16.6c-6,0-11.1-3.8-11.1-10.7c0-8.4,8.6-12.5,18.7-15.3l9-2.6
						c-0.2-8.1-4.6-10.4-10.6-10.4c-4.6,0-9,2-13.2,6.9l-0.8-0.7c4.6-5.6,10.8-9.4,18.3-9.4c9.9,0,14.5,5.3,14.5,15.2v15.7
						c0,5.9,0.6,8.3,3.3,9.2v1.1h-8.2C576,526.5,574.8,525.3,574.8,523.2 M562.3,521.3c8,0,12.5-11.2,12.6-18.6v-1.5l-8.7,2.5
						c-3.8,1.1-11.4,3.2-11.4,10C554.7,519.1,558.5,521.3,562.3,521.3"/>
					<path class="st0" d="M428.7,525.4c2.7-0.9,3.3-3.3,3.3-9.2v-43.3c0-4.8-1.2-5.6-3.3-6.5v-1.1l10.8-4.7l0.8,0.7v55
						c0,5.9,0.6,8.3,3.3,9.2v1.1h-14.9V525.4z"/>
					<path class="st0" d="M592.2,525.4c2.7-0.9,3.3-3.3,3.3-9.2v-43.3c0-4.8-1.2-5.6-3.3-6.5v-1.1l10.8-4.7l0.8,0.7v55
						c0,5.9,0.6,8.3,3.3,9.2v1.1h-14.9V525.4z"/>
					<path class="st0" d="M408.7,501v1.1c3.5,1,4.2,3.3,4.2,9.6v7.4c-1.8,3.6-6.7,5.3-11.8,5.3c-5.3,0-11.4-2.1-15.5-6.2
						c-6.2-6.6-9.5-16.7-9.4-26c0.1-13.2,7.8-21.1,19.1-21.1c8.3,0,17.1,5,20.1,12.6l1-0.2l-0.3-10.8c-4.2-2.9-12.7-4-17.7-4
						c-18.4,0-30.7,13.2-30.7,28.9c0,17.9,12,29.6,30.8,29.6c6.8,0,16.8-3.3,22.9-11.4v-15H408.7z"/>
					<path class="st0" d="M470.8,485.1c-11.2,0-21.8,8.8-21.8,22c0,13.9,11.2,20.2,21.8,20.2c9.6,0,21.7-7.9,21.7-21.9
						C492.5,491.1,480.9,485.1,470.8,485.1 M473.7,524.7c-5.7,0-10.2-4.1-12.3-7.8c-2.5-4.5-4.2-10.8-4.2-15.8
						c0-5.4,2.4-11.8,8.2-13.2c5.9-1.4,11.8,3.1,14.6,7.9c2.7,4.7,4.4,10.9,4.4,15.9C484.3,515.6,482.5,524.7,473.7,524.7"/>
					<path class="st0" d="M522.3,485.1c-4.7,0-9.5,2.2-13.6,4.8v-28.8l-0.8-0.7l-10.8,4.7v1.1c2,0.9,3.3,1.7,3.3,6.5v53.7h0.9
						l3.3-5.3c3,3.4,8.2,6,14.1,6c13.6,0,22.1-10,22.1-22.5C540.9,494.7,533.9,485.1,522.3,485.1 M521.9,525.6
						c-6.2,0-13.2-7-13.2-13.4V492c2.9-1.8,6-2.7,8.6-2.7c12,0,15.6,16.1,15.6,21.8C532.9,518.4,530.6,525.6,521.9,525.6"/>
				</g>
			</g>
		</g>
		<g>
			<defs>
				<path id="SVGID_1_" d="M209.3,265.5c16,5.8,32.6,18.3,33.1,41.2c3.2,2.7,6.5,5.2,9.9,7.6c-0.1-2.5-0.2-4.9-0.2-7.4
					c-0.4-29.7-23.1-47.4-48.2-53.3C205.5,257.7,207.3,261.7,209.3,265.5 M194.8,185.3c2.6,2.3,5.1,5,7.5,7.4c2.6,2.7,4.9,5,6.9,6.6
					c7.2,5.9,16.1,7.6,24.8,9.2c9.4,1.7,17.5,3.2,21.7,9.8c2.4,3.6,2.6,7.5,2.9,11.9c0.3,4.7,0.7,10.1,3.8,15.6
					c4,7.2,7.9,10.7,11.7,14c2.6,2.3,5,4.5,7.7,8c0.2,0.3,19.9,26.5,6.8,46.7c-1.1,1.7-2.2,2.6-3.3,2.8c-1.8,0.2-4.2-1.5-5-2.3
					c-4.1-4.2-8.5-23.1-10.3-35.1l0-0.2c-3.9-19.9-22.6-28-37.7-34.5l-2.5-1.1c-14.6-6.4-28.8-14-35-26.4c0.7,6.6,2,13.2,3.6,19.5
					c7.8,6.6,17.6,11.5,27.5,15.8l2.5,1.1c14.3,6.2,29.1,12.6,32,27.4c0.9,5.6,5.3,32.5,13,40.4c0.6,0.6,5.3,5.2,11.6,5.2
					c0.4,0,0.9,0,1.3-0.1c2.9-0.3,7-1.8,10.5-7.1c7-10.9,7.9-24.4,2.7-39.2c-3.8-10.7-9.6-18.4-9.9-18.7c-3.3-4.3-6.3-7-9-9.3
					c-3.5-3.1-6.5-5.7-9.7-11.5c-2-3.6-2.3-7.3-2.6-11.5c-0.3-5-0.7-10.8-4.5-16.5c-6.5-10-17.5-12-28.1-14
					c-7.8-1.4-15.1-2.8-20.4-7.1c-1.5-1.3-3.7-3.5-6.1-5.9c-4-4.1-8.3-8.5-12.6-11.7C195.8,177.8,195.2,181.5,194.8,185.3
					 M375.4,179.6c-3.9,13.5,2.6,28,8,34.5c4.1,4.9,8.7,8.8,13.2,12.6c1,0.8,2,1.7,3,2.5c8.7,7.5,14.2,17.2,17.8,31.5
					c3.3,13.4,6.5,26,7.2,39.5c0,0.5,0,1.1,0.1,1.7c3.2-3,6.2-6.1,9-9.3c-1.3-11.7-4-22.7-6.9-34.3c-4.1-16.4-10.5-27.6-20.9-36.5
					c-1-0.9-2.1-1.7-3.1-2.6c-4.3-3.6-8.4-7.1-11.9-11.3c-4.2-5-8.8-16.4-6.1-25.7l0-0.1c0.7-2.8,3.5-7.3,9.4-7.3c0.2,0,0.4,0,0.6,0
					c4.7,0.2,12.1,4.3,20.2,22.1l0.3,0.6c16.2,34.9,31.8,47.3,43.6,53.4c1.2-3,2.2-6.1,3.2-9.3c-10.4-5.7-23.6-17.2-38-48.2
					l-0.2-0.5c-8.2-17.8-17.8-27.1-28.5-27.7c-0.4,0-0.8,0-1.1,0C383.9,165.2,377.3,172.5,375.4,179.6 M204.1,149.6
					c6.7,1,13.5,2,19.8,4c22.1,6.9,34.4,19.8,42.3,44.4c4.1,12.7,11.5,24.1,20.7,32.1c4.1,3.5,8.7,5.8,13.2,7.9
					c2.8,1.4,5.4,2.6,7.9,4.2c11.1,7,17.9,20.5,16.9,33.6c-0.8,10.8-6.2,20.6-11.9,31.1c-1.1,2.1-2.3,4.2-3.4,6.2
					c-3.3,6.2-6.9,14.1-8.6,22.7c3.1,0.7,6.3,1.3,9.5,1.8c1.2-5.9,3.7-12.5,7.7-19.9c1.1-2,2.2-4.1,3.3-6.1
					c5.9-10.9,12.1-22.1,13.1-35c1.2-16.6-7.4-33.7-21.4-42.5c-2.9-1.8-5.9-3.3-8.8-4.7c-4.1-2-8-3.9-11.1-6.5
					c-8-6.8-14.3-16.7-17.8-27.7c-6.3-19.5-16.9-40.7-48.6-50.7c-6.1-1.9-12.5-3-18.5-3.9C206.8,143.4,205.4,146.5,204.1,149.6
					 M239.6,99.7c11.2,10.2,22.1,22.4,27,37c1.5,4.6,2.5,9.4,3.5,14.5c1.7,8.3,3.4,16.9,7.8,24.7c7.5,13.2,20.8,20.8,33.6,28.1
					c12.1,6.9,23.6,13.5,29.9,24.2c7.5,12.8,5.9,28.3,4.3,44.7c-1.6,16.6-3.3,33.7,4.5,48.9c2.4,4.7,5.6,8.9,8.6,12.8
					c0.3,0.4,0.7,0.9,1,1.3c3.4-0.7,6.8-1.6,10.1-2.6c-1.1-1.6-2.3-3.1-3.4-4.6c-2.9-3.8-5.7-7.4-7.7-11.4
					c-6.5-12.7-5-27.7-3.4-43.5c1.7-17.2,3.5-35.1-5.6-50.6c-7.6-13-20.7-20.5-33.4-27.7c-12.2-7-23.8-13.6-30-24.5
					c-3.7-6.4-5.2-13.9-6.7-21.8c-1-5.2-2.1-10.5-3.8-15.7c-5.4-16.2-16.8-29.2-28.6-40.2C244.5,95.5,242,97.6,239.6,99.7
					 M413.3,116.9c5,9.4,25.4,33.8,37.5,42.3c0.4,0.3,0.9,0.7,1.6,1.2c3.7,2.7,7.5,5.3,11.2,7.7c-1.3-5.1-2.9-10.1-4.8-15
					c-0.3-0.2-0.5-0.4-0.8-0.6c-0.7-0.5-1.3-1-1.7-1.2c-10.7-7.5-30.1-30.7-34.5-38.9c-3.3-6.3-5.6-12.6-7.4-19
					c-3.9-3-8-5.9-12.3-8.4C404.8,95.4,407.6,106.1,413.3,116.9 M268.7,79.8c4.3,8,8.9,15.8,13.8,23.5c2.4,3.7,4.8,7.2,8.4,10
					c3.7,2.9,7.9,4.3,11.9,5.8c2.9,1,5.6,2,7.9,3.4c8.8,5.5,10.8,16.3,13.1,28.9c1.7,9.5,3.5,19.3,8.6,27.5
					c3.8,6.2,9.2,11,14.4,15.6c6.2,5.5,12,10.7,14.4,17.5c0.7,1.9,1.2,4.2,1.8,6.5c0.7,3,1.4,6,2.5,8.8c4,10.4,12.7,15,17.8,17.7
					l0.5,0.3c20.2,10.8,16.8,28.2,12.9,48.4c-1.6,8.2-3.3,16.8-2.9,24.6c0.1,1.9,0.3,3.6,0.6,5.1c3.1-1.6,6.1-3.4,9.1-5.2
					c0-0.1,0-0.2,0-0.3c-0.3-6.7,1.2-14.3,2.8-22.4c3.9-19.9,8.7-44.6-17.8-58.8l-0.6-0.3c-4.7-2.5-10.6-5.6-13.4-12.7
					c-0.8-2.2-1.5-4.8-2.1-7.5c-0.6-2.5-1.2-5.1-2-7.4c-3.2-9.3-10.3-15.5-17.1-21.6c-4.9-4.3-9.5-8.4-12.6-13.4
					c-4.1-6.7-5.7-15.6-7.3-24.2c-2.5-13.6-5-27.7-17.5-35.4c-3.2-2-6.5-3.1-9.8-4.3c-3.4-1.2-6.7-2.4-9.2-4.3
					c-2.4-1.9-4.3-4.7-6.2-7.6c-4.7-7.2-9.1-14.7-13.2-22.3C274.5,77,271.5,78.4,268.7,79.8 M382.2,113.1l0,0.1
					c1.8,7.5,3.7,15.3,7.5,22.6c4.4,8.3,11.4,15.9,21.4,23.4c5.1,3.8,10.4,7.2,15.6,10.5c9.2,5.8,17.8,11.3,25,18.6
					c6.3,6.4,11.5,14.2,15.7,23.8c0.2-3.3,0.4-6.7,0.4-10.1c0-3.3-0.1-6.5-0.3-9.7c-2.6-3.8-5.5-7.4-8.9-10.8
					c-8-8.1-17.5-14.1-26.7-20c-5-3.2-10.3-6.5-15-10.1c-8.9-6.6-14.9-13.2-18.6-20.2c-3.2-6.1-4.9-13-6.7-20.3l0-0.1
					c-2.7-10.9-5.9-24.5-12.1-36.9c-4.4-1.7-9-3.1-13.6-4.4C374,81.4,378.1,96.4,382.2,113.1 M327.2,65c0.5,0.7,1,1.4,1.6,2.1
					c3.3,4.2,7.3,7.9,11.1,11.5c7.3,6.8,14.2,13.2,15.4,21.7c0.3,2.3,0.3,4.7,0.2,7.3c-0.1,1.8-0.1,3.7,0,5.6c0.3,7,4.2,14,8,20.7
					c7,12.4,8.3,16.9,3.1,20.5c-2,1.4-4.1,1.3-5.6,1c-2.8-0.6-5.5-2.5-7-5c-2.4-4-3.3-8.9-4.2-14.1c-0.4-2.2-0.8-4.5-1.3-6.7
					c-3.8-16.3-13-29.7-25.2-36.9c-3.5-2.1-6.4-3.7-9-5.1c-11.5-6.3-12.5-6.9-15.2-18.7c-3.2,0.7-6.3,1.6-9.3,2.6
					c3.7,15.2,7,17.5,19.9,24.6c2.5,1.4,5.4,3,8.8,5c9.9,5.8,17.4,17,20.6,30.7c0.5,2,0.8,4,1.2,6.2c1,5.9,2.1,11.9,5.4,17.5
					c2.9,4.8,7.8,8.3,13.3,9.4c1.3,0.3,2.6,0.4,3.8,0.4c3.4,0,6.6-1,9.3-2.9c13.3-9.2,5.5-23.1-0.2-33.2c-3.2-5.7-6.5-11.6-6.8-16.4
					c-0.1-1.6,0-3.2,0-4.9c0.1-2.9,0.2-5.9-0.3-9c-1.8-11.8-10.2-19.7-18.4-27.3c-2.2-2.1-4.4-4.1-6.4-6.2c-3.1-0.2-6.2-0.3-9.3-0.3
					C329.6,65,328.4,65,327.2,65"/>
			</defs>
			
				<linearGradient id="SVGID_00000036218846941358810630000003275902613496285848_" gradientUnits="userSpaceOnUse" x1="225.5997" y1="309.5311" x2="436.1854" y2="94.7196">
				<stop  offset="0" style="stop-color:#F8E4C9"/>
				<stop  offset="1" style="stop-color:#B59A67"/>
			</linearGradient>
			<use xlink:href="#SVGID_1_"  style="overflow:visible;fill:url(#SVGID_00000036218846941358810630000003275902613496285848_);"/>
			<clipPath id="SVGID_00000039110955052913005490000006357657037261274265_">
				<use xlink:href="#SVGID_1_"  style="overflow:visible;"/>
			</clipPath>
		</g>
	</g>
</g>
</svg>
